# https://github.com/mikedh/trimesh
v -0.00934394359588623 -0.00000173589994665 -0.00413661956787109
v -0.01003359889984131 -0.00000173589994665 0.00253004550933838
v -0.00934394359588623 0.00528561925888061 -0.00413661956787109
v -0.01026348400115967 0.00298676919937134 0.00161050546169281
v -0.01026348400115967 0.00528561925888061 0.00253004550933838
v -0.00060831421613693 -0.00000173589994665 -0.00413661956787109
v -0.00060831421613693 -0.00000173589994665 0.00253004550933838
v -0.00060831421613693 0.00505573368072510 -0.00413661956787109
v -0.00060831421613693 0.00505573368072510 0.00253004550933838
f 2 1 6
f 4 1 2
f 4 3 1
f 8 1 3
f 2 5 4
f 5 3 4
f 9 5 2
f 9 3 5
f 6 1 8
f 8 7 6
f 6 7 2
f 2 7 9
f 8 3 9
f 9 7 8
