# https://github.com/mikedh/trimesh
v -0.00819451904296875 0.00551550388336182 -0.00758489465713501
v -0.00934394359588623 0.00551550388336182 -0.00413661956787109
v -0.00842440414428711 0.00988331890106201 -0.00758489465713501
v -0.00934394359588623 0.00988331890106201 -0.00413661956787109
v -0.00405658912658691 0.00551550388336182 -0.00758489465713501
v -0.00405658912658691 0.00551550388336182 -0.00413661956787109
v -0.00566578435897827 0.00988331890106201 -0.00758489465713501
v -0.00405658912658691 0.00781435394287109 -0.00758489465713501
v -0.00658532428741455 0.00988331890106201 -0.00413661956787109
f 2 3 1
f 1 6 2
f 8 1 3
f 9 7 3
f 4 3 2
f 9 4 2
f 3 4 9
f 5 1 8
f 5 6 1
f 8 6 5
f 2 6 9
f 3 7 8
f 9 8 7
f 6 8 9
