# https://github.com/mikedh/trimesh
v -0.00060831421613693 -0.00000173589994665 -0.01011362934112549
v -0.00060831421613693 -0.00000173589994665 0.00253004550933838
v -0.00060831421613693 0.00551550388336182 -0.01172282409667969
v -0.00060831421613693 0.00505573368072510 0.00253004550933838
v 0.00490369987487793 -0.00000173589994665 -0.00885374069213867
v 0.00570359277725220 0.00118733906745911 -0.00901772117614746
v 0.00569910907745361 -0.00000173589994665 0.00253004550933838
v 0.00801499652862549 0.00461695480346680 -0.00942922210693359
v 0.00832929897308350 0.00505094289779663 -0.00916909980773926
v 0.00842111682891846 0.00516294193267822 -0.00894873523712158
v 0.00812731552124023 0.00551550388336182 -0.00965385913848877
v 0.00843815612792969 0.00504924249649048 -0.00759453773498535
v 0.00849446773529053 0.00409500026702881 0.00253004550933838
v 0.00743766069412231 0.00505573368072510 0.00253004550933838
f 1 3 6
f 1 2 3
f 1 6 5
f 1 5 7
f 1 7 2
f 3 4 11
f 2 4 3
f 2 13 4
f 2 7 13
f 3 11 6
f 11 8 6
f 11 9 8
f 11 10 9
f 11 12 10
f 11 14 12
f 4 14 11
f 4 13 14
f 14 13 12
f 6 7 5
f 6 8 7
f 8 9 7
f 12 7 9
f 10 12 9
f 13 7 12
