# https://github.com/mikedh/trimesh
v -0.00934394359588623 0.00528561925888061 -0.00413661956787109
v -0.01003359889984131 0.00528561925888061 -0.00137799954414368
v -0.01026348400115967 0.00528561925888061 0.00253004550933838
v -0.00957382965087891 0.00988331890106201 -0.00390673470497131
v -0.01026348400115967 0.00988331890106201 0.00069096541404724
v -0.01026348400115967 0.00988331890106201 0.00253004550933838
v -0.00612555408477783 0.00528561925888061 -0.00413661956787109
v -0.00612555408477783 0.00528561925888061 0.00253004550933838
v -0.00658532428741455 0.00988331890106201 -0.00413661956787109
v -0.00750486421585083 0.00988331890106201 0.00253004550933838
f 2 4 1
f 1 7 2
f 2 3 5
f 8 3 2
f 5 4 2
f 9 1 4
f 3 6 5
f 10 6 3
f 5 6 4
f 4 6 10
f 2 7 8
f 7 1 9
f 7 9 8
f 8 10 3
f 4 10 9
f 8 9 10
