# https://github.com/mikedh/trimesh
v -0.00060831421613693 0.00551550388336182 -0.01172282409667969
v -0.00060831421613693 0.00551550388336182 -0.00873431968688965
v 0.00100088083744049 0.00551550388336182 -0.00781477928161621
v 0.00048174077272415 0.00678723478317261 -0.01226785182952881
v -0.00060831421613693 0.00712469911575317 -0.01241247940063477
v 0.00012363815307617 0.00712469911575317 -0.01241247940063477
v 0.00290295457839966 0.00652775049209595 -0.01173025226593018
v 0.00217500305175781 0.00712469911575317 -0.01200486469268799
v -0.00060831421613693 0.00712469911575317 -0.00873431968688965
v 0.00651812076568604 0.00551550388336182 -0.01057339954376221
v 0.00858708572387695 0.00551550388336182 -0.00781477928161621
v 0.00835720062255859 0.00551550388336182 -0.00666535472869873
v 0.00789743089675903 0.00712469911575317 -0.01034351444244385
v 0.00835720062255859 0.00712469911575317 -0.00758489465713501
f 1 4 7
f 1 2 5
f 1 7 10
f 2 3 9
f 1 12 2
f 2 12 3
f 3 12 9
f 1 5 4
f 2 9 5
f 5 6 4
f 5 9 6
f 10 7 8
f 13 8 6
f 9 14 6
f 1 10 12
f 10 13 11
f 10 11 12
f 11 14 12
f 10 8 13
f 13 6 14
f 9 12 14
f 11 13 14
f 7 4 6
f 7 6 8
