# https://github.com/mikedh/trimesh
v -0.00405658912658691 -0.00000173589994665 0.00873694038391113
v -0.00382670426368713 -0.00000173589994665 0.00965647983551025
v -0.00382670426368713 0.00293531012535095 0.01069865798950195
v -0.00379896998405457 0.00297614693641663 0.01071647644042969
v -0.00360230255126953 0.00323922014236450 0.01083342552185059
v -0.00390769052505493 0.00461412477493286 0.01097042179107666
v -0.00212819194793701 0.00501854372024536 0.01164169216156006
v -0.00405658912658691 0.01011320400238037 0.00873694038391113
v -0.00392162919044495 0.00509445667266846 0.01105166053771973
v -0.00405658912658691 0.00972418212890625 0.01183155059814453
v -0.00405658912658691 0.01011320400238037 0.01190111255645752
v -0.00397932529449463 0.01011320400238037 0.01192857742309570
v -0.00376472306251526 0.01011320400238037 0.01200023269653320
v -0.00164992606639862 0.00584698915481567 0.01194854259490967
v -0.00171957540512085 0.00859610462188721 0.01241361713409424
v 0.00192042064666748 -0.00000173589994665 0.00873694038391113
v 0.00192042064666748 -0.00000173589994665 0.01034613609313965
v 0.00020769163966179 0.00457854413986206 0.01168895816802979
v 0.00192042064666748 0.00245695948600769 0.01114159584045410
v 0.00110527825355530 0.00368426942825317 0.01147249698638916
v 0.00043505433201790 0.00439485359191895 0.01164798545837402
v 0.00066066420078278 0.00418418550491333 0.01159814167022705
v 0.00088417416810989 0.00394711947441101 0.01153958797454834
v 0.00153898453712463 0.00308409619331360 0.01131352996826172
v 0.00132364571094513 0.00339634847640991 0.01139707183837891
v 0.00175100696086884 0.00274831485748291 0.01122210597991943
v 0.00192042064666748 0.01011320400238037 0.00919671058654785
v 0.00023950573801994 0.01009282302856445 0.01261759471893311
v 0.00026359197497368 0.01011320400238037 0.01261997318267822
v 0.00048657858371735 0.01011320400238037 0.01261017417907715
v 0.00073328387737274 0.01011320400238037 0.01259456443786621
v 0.00097963011264801 0.01011320400238037 0.01257420349121094
v 0.00192042064666748 0.00872543430328369 0.01221491336822510
v 0.00122555315494537 0.01011320400238037 0.01254909801483154
v 0.00147093784809113 0.01011320400238037 0.01251925849914551
v 0.00171570086479187 0.01011320400238037 0.01248469638824463
v 0.00192042064666748 0.01011320400238037 0.01245175266265869
f 1 2 6
f 2 4 3
f 2 5 4
f 2 3 6
f 1 6 10
f 1 16 2
f 2 17 7
f 1 8 16
f 2 7 5
f 1 10 8
f 8 13 27
f 6 9 10
f 8 10 11
f 8 11 13
f 11 12 13
f 7 18 14
f 13 15 29
f 2 16 17
f 16 19 17
f 16 27 19
f 7 17 18
f 17 26 18
f 17 19 26
f 18 26 24
f 18 24 25
f 18 22 21
f 18 23 22
f 18 20 23
f 18 25 20
f 8 27 16
f 13 29 27
f 15 28 29
f 27 33 19
f 27 29 37
f 27 37 33
f 29 30 37
f 30 31 37
f 31 32 37
f 32 34 37
f 34 35 37
f 35 36 37
f 3 4 9
f 3 9 6
f 4 5 12
f 4 10 9
f 4 12 10
f 10 12 11
f 5 7 12
f 7 15 12
f 12 15 13
f 7 14 15
f 14 18 28
f 14 28 15
f 18 21 30
f 18 30 28
f 28 30 29
f 21 22 31
f 21 31 30
f 22 23 32
f 22 32 31
f 20 34 23
f 23 34 32
f 20 25 35
f 20 35 34
f 24 36 25
f 25 36 35
f 24 26 33
f 24 33 36
f 36 33 37
f 26 19 33
