# https://github.com/mikedh/trimesh
v -0.00612555408477783 0.00528561925888061 -0.00413661956787109
v -0.00612555408477783 0.00528561925888061 0.00253004550933838
v -0.00612555408477783 0.00850400924682617 -0.00413661956787109
v -0.00612555408477783 0.00735458374023438 0.00253004550933838
v -0.00198762428760529 0.00551550388336182 -0.00413661956787109
v -0.00405658912658691 0.00597527360916138 0.00253004550933838
v -0.00290716409683228 0.00528561925888061 0.00092085039615631
f 3 1 2
f 3 5 1
f 4 2 6
f 7 2 1
f 7 6 2
f 2 4 3
f 3 4 6
f 7 1 5
f 6 5 3
f 5 6 7
