# https://github.com/mikedh/trimesh
v -0.00060831421613693 0.01540055847167969 -0.01241247940063477
v 0.00077099567651749 0.01540055847167969 -0.01241247940063477
v -0.00060831421613693 0.01540055847167969 -0.00873431968688965
v -0.00060831421613693 0.01861894798278809 -0.01218259429931641
v 0.00352961564064026 0.01884883499145508 -0.01172282409667969
v -0.00060831421613693 0.01930860328674316 -0.00873431968688965
v 0.00100088083744049 0.01953848838806152 -0.00850443363189697
v 0.00628823566436768 0.01540055847167969 -0.01149293899536133
v 0.00651812076568604 0.01700975418090820 -0.01103316974639893
v 0.00766754579544067 0.01563044452667236 -0.00896420478820801
v 0.00766754579544067 0.01540055847167969 -0.00781477928161621
v 0.00536869573593140 0.01838906288146973 -0.00804466438293457
f 4 2 1
f 2 8 1
f 5 8 2
f 6 1 3
f 11 3 1
f 11 7 3
f 5 2 4
f 4 1 6
f 4 7 5
f 6 3 7
f 6 7 4
f 12 5 7
f 1 8 11
f 9 8 5
f 10 8 9
f 11 8 10
f 9 12 10
f 10 12 11
f 9 5 12
f 12 7 11
