# https://github.com/mikedh/trimesh
v -0.01026348400115967 0.01011320400238037 0.00253004550933838
v -0.01003359889984131 0.01011320400238037 0.00551854991912842
v -0.01026348400115967 0.01195228385925293 0.00253004550933838
v -0.00934394359588623 0.01218216896057129 0.00275993037223816
v -0.01026348400115967 0.01241205310821533 0.00528866529464722
v -0.00796463441848755 0.01011320400238037 0.00253004550933838
v -0.00796463441848755 0.01011320400238037 0.00551854991912842
v -0.00888417434692383 0.01287182426452637 0.00528866529464722
f 1 5 3
f 3 6 1
f 6 2 1
f 6 3 4
f 1 2 5
f 4 3 8
f 5 2 8
f 3 5 8
f 7 2 6
f 7 8 2
f 6 8 7
f 8 6 4
