# https://github.com/mikedh/trimesh

o cmr_v4_25.obj
v -0.01003360 0.00000174 0.00253005
v -0.00911406 -0.00022815 0.00712775
v -0.00862943 -0.00284513 0.00838777
v -0.01026348 -0.00643504 0.00253005
v -0.01026348 -0.00643504 0.00436913
v -0.00832687 -0.00643504 0.00921065
v -0.00822367 -0.00643504 0.00926142
v -0.00766293 -0.00639955 0.00953060
v -0.00405659 0.00000174 0.00253005
v -0.00593924 -0.00309910 0.00975883
v -0.00405659 0.00000174 0.00942659
v -0.00405659 -0.00597527 0.00253005
v -0.00405659 -0.00392383 0.01083980
v -0.00405659 -0.00575340 0.01118332
f 5 2 1
f 5 3 2
f 2 11 1
f 9 4 1
f 3 10 2
f 4 5 1
f 7 5 4
f 12 8 4
f 6 3 5
f 8 7 4
f 7 6 5
f 11 9 1
f 10 11 2
f 11 13 9
f 10 13 11
f 9 12 4
f 13 12 9
f 14 8 12
f 13 14 12
f 10 3 8
f 7 3 6
f 8 3 7
f 13 10 8
f 14 13 8
