# https://github.com/mikedh/trimesh

o cmr_v4_00.obj
v -0.00405659 0.00000174 0.00873694
v -0.00382670 0.00000174 0.00965648
v -0.00382670 -0.00293531 0.01069866
v -0.00379897 -0.00297615 0.01071648
v -0.00360230 -0.00323922 0.01083343
v -0.00390769 -0.00461412 0.01097042
v -0.00212819 -0.00501854 0.01164169
v -0.00405659 -0.01011320 0.00873694
v -0.00392163 -0.00509446 0.01105166
v -0.00405659 -0.00972418 0.01183155
v -0.00405659 -0.01011320 0.01190111
v -0.00397933 -0.01011320 0.01192858
v -0.00376472 -0.01011320 0.01200023
v -0.00164993 -0.00584699 0.01194854
v -0.00171958 -0.00859610 0.01241362
v 0.00192042 0.00000174 0.00873694
v 0.00192042 0.00000174 0.01034614
v 0.00020769 -0.00457854 0.01168896
v 0.00192042 -0.00245696 0.01114160
v 0.00110528 -0.00368427 0.01147250
v 0.00043505 -0.00439485 0.01164799
v 0.00066066 -0.00418419 0.01159814
v 0.00088417 -0.00394712 0.01153959
v 0.00153898 -0.00308410 0.01131353
v 0.00132365 -0.00339635 0.01139707
v 0.00175101 -0.00274831 0.01122211
v 0.00192042 -0.01011320 0.00919671
v 0.00023951 -0.01009282 0.01261759
v 0.00026359 -0.01011320 0.01261997
v 0.00048658 -0.01011320 0.01261017
v 0.00073328 -0.01011320 0.01259456
v 0.00097963 -0.01011320 0.01257420
v 0.00192042 -0.00872543 0.01221491
v 0.00122555 -0.01011320 0.01254910
v 0.00147094 -0.01011320 0.01251926
v 0.00171570 -0.01011320 0.01248470
v 0.00192042 -0.01011320 0.01245175
f 6 2 1
f 3 4 2
f 4 5 2
f 6 3 2
f 10 6 1
f 2 16 1
f 7 17 2
f 16 8 1
f 5 7 2
f 8 10 1
f 27 13 8
f 10 9 6
f 11 10 8
f 13 11 8
f 13 12 11
f 14 18 7
f 29 15 13
f 17 16 2
f 17 19 16
f 19 27 16
f 18 17 7
f 18 26 17
f 26 19 17
f 24 26 18
f 25 24 18
f 21 22 18
f 22 23 18
f 23 20 18
f 20 25 18
f 16 27 8
f 27 29 13
f 29 28 15
f 19 33 27
f 37 29 27
f 33 37 27
f 37 30 29
f 37 31 30
f 37 32 31
f 37 34 32
f 37 35 34
f 37 36 35
f 9 4 3
f 6 9 3
f 12 5 4
f 9 10 4
f 10 12 4
f 11 12 10
f 12 7 5
f 12 15 7
f 13 15 12
f 15 14 7
f 28 18 14
f 15 28 14
f 30 21 18
f 28 30 18
f 29 30 28
f 31 22 21
f 30 31 21
f 32 23 22
f 31 32 22
f 23 34 20
f 32 34 23
f 35 25 20
f 34 35 20
f 25 36 24
f 35 36 25
f 33 26 24
f 36 33 24
f 37 33 36
f 33 19 26
