# https://github.com/mikedh/trimesh

o cmr_v4_22.obj
v -0.00060831 0.00000174 -0.01011363
v -0.00060831 0.00000174 0.00253005
v -0.00060831 -0.00551550 -0.01172282
v -0.00060831 -0.00505573 0.00253005
v 0.00490370 0.00000174 -0.00885374
v 0.00570359 -0.00118734 -0.00901772
v 0.00569911 0.00000174 0.00253005
v 0.00801500 -0.00461695 -0.00942922
v 0.00832930 -0.00505094 -0.00916910
v 0.00842112 -0.00516294 -0.00894874
v 0.00812732 -0.00551550 -0.00965386
v 0.00843816 -0.00504924 -0.00759454
v 0.00849447 -0.00409500 0.00253005
v 0.00743766 -0.00505573 0.00253005
f 6 3 1
f 3 2 1
f 5 6 1
f 7 5 1
f 2 7 1
f 11 4 3
f 3 4 2
f 4 13 2
f 13 7 2
f 6 11 3
f 6 8 11
f 8 9 11
f 9 10 11
f 10 12 11
f 12 14 11
f 11 14 4
f 14 13 4
f 12 13 14
f 5 7 6
f 7 8 6
f 7 9 8
f 9 7 12
f 9 12 10
f 12 7 13
