# https://github.com/mikedh/trimesh

o cmr_v4_27.obj
v -0.00670876 0.00000174 -0.00824587
v -0.00673629 -0.00009928 -0.00827951
v -0.00642309 -0.00015091 -0.00853904
v -0.00625374 -0.00015279 -0.00866545
v -0.00607818 -0.00012973 -0.00878313
v -0.00588279 -0.00007638 -0.00889929
v -0.00589678 -0.00008182 -0.00889183
v -0.00555158 -0.00015101 -0.00913571
v -0.00572655 -0.00012418 -0.00901713
v -0.00499377 -0.00008191 -0.00943623
v -0.00537086 -0.00015289 -0.00924524
v -0.00518479 -0.00012983 -0.00934548
v -0.00586410 0.00000174 -0.00887135
v -0.00748366 0.00000174 -0.00754713
v -0.00734084 -0.00042092 -0.00792052
v -0.00934394 0.00000174 -0.00413662
v -0.00750486 -0.00551550 -0.00896420
v -0.00714031 -0.00332818 -0.00905534
v -0.00681166 -0.00370625 -0.00943125
v -0.00696524 -0.00351552 -0.00925383
v -0.00665799 -0.00392383 -0.00961212
v -0.00634958 -0.00444233 -0.00998535
v -0.00619441 -0.00474492 -0.01017834
v -0.00547013 -0.00551550 -0.01082261
v -0.00525664 -0.00551550 -0.01092983
v -0.00504113 -0.00551550 -0.01103291
v -0.00603830 -0.00507769 -0.01037604
v -0.00588104 -0.00544173 -0.01057881
v -0.00585152 -0.00551550 -0.01061755
v -0.00568151 -0.00551550 -0.01071130
v -0.00650404 -0.00416892 -0.00979671
v -0.00934394 -0.00551550 -0.00413662
v -0.00495776 -0.00006854 -0.00945116
v -0.00490629 0.00000174 -0.00944685
v -0.00487662 0.00000174 -0.00945697
v -0.00491219 -0.00094305 -0.00973867
v -0.00483511 -0.00192584 -0.01007058
v -0.00060831 0.00000174 -0.01011363
v -0.00060831 0.00000174 -0.00413662
v -0.00473581 -0.00280855 -0.01037895
v -0.00461395 -0.00357559 -0.01065904
v -0.00446963 -0.00421244 -0.01090629
v -0.00427560 -0.00439901 -0.01103045
v -0.00430089 -0.00471418 -0.01111985
v -0.00482367 -0.00551550 -0.01113182
v -0.00460436 -0.00551550 -0.01122652
v -0.00429151 -0.00551550 -0.01135450
v -0.00060831 -0.00551550 -0.01172282
v -0.00060831 -0.00505573 -0.00413662
f 14 15 18
f 1 14 35
f 35 34 13
f 1 35 13
f 35 14 16
f 14 17 16
f 32 39 16
f 14 18 17
f 19 21 18
f 20 19 18
f 21 31 18
f 31 22 18
f 23 27 17
f 27 28 17
f 28 29 17
f 25 29 24
f 26 29 25
f 45 29 26
f 45 46 29
f 29 30 24
f 18 22 17
f 22 23 17
f 48 32 17
f 17 32 16
f 38 43 35
f 39 48 38
f 39 35 16
f 39 38 35
f 46 47 29
f 47 44 43
f 29 48 17
f 47 48 29
f 48 47 43
f 48 43 38
f 49 39 32
f 48 49 32
f 49 48 39
f 34 35 33
f 35 36 33
f 37 36 35
f 40 37 35
f 41 40 35
f 42 41 35
f 44 42 35
f 43 44 35
f 44 46 42
f 47 46 44
f 42 45 41
f 46 45 42
f 40 41 26
f 41 45 26
f 40 26 25
f 37 40 25
f 36 37 24
f 37 25 24
f 36 30 10
f 30 36 24
f 33 36 10
f 28 12 10
f 30 28 10
f 30 29 28
f 12 27 11
f 28 27 12
f 11 23 8
f 27 23 11
f 13 8 6
f 8 9 6
f 12 34 10
f 13 34 8
f 34 11 8
f 34 12 11
f 34 33 10
f 22 9 8
f 23 22 8
f 9 7 6
f 9 31 7
f 22 31 9
f 7 31 5
f 31 21 5
f 5 19 4
f 21 19 5
f 4 20 3
f 19 20 4
f 2 1 3
f 13 4 3
f 1 13 3
f 7 13 6
f 13 7 5
f 13 5 4
f 15 2 3
f 20 15 3
f 15 20 18
f 2 15 1
f 14 1 15
