# https://github.com/mikedh/trimesh

o cmr_v4_28.obj
v -0.00060831 -0.00712470 -0.01241248
v -0.00060831 -0.00712470 -0.00873432
v -0.00060831 -0.01540056 -0.01241248
v -0.00060831 -0.01540056 -0.00873432
v 0.00812732 -0.00781435 -0.01034351
v 0.00812732 -0.00712470 -0.00758489
v 0.00559858 -0.01540056 -0.01172282
v 0.00720778 -0.01310171 -0.01149294
v 0.00766755 -0.01540056 -0.00988374
v 0.00766755 -0.01540056 -0.00758489
f 1 4 2
f 2 6 1
f 3 1 7
f 1 3 4
f 4 3 7
f 2 4 10
f 5 1 6
f 5 8 1
f 10 6 2
f 6 10 5
f 1 8 7
f 9 8 5
f 7 8 9
f 7 10 4
f 5 10 9
f 9 10 7
