# https://github.com/mikedh/trimesh

o cmr_v4_10.obj
v -0.00060831 -0.00551550 -0.01172282
v -0.00060831 -0.00551550 -0.00873432
v 0.00100088 -0.00551550 -0.00781478
v 0.00048174 -0.00678723 -0.01226785
v -0.00060831 -0.00712470 -0.01241248
v 0.00012364 -0.00712470 -0.01241248
v 0.00290295 -0.00652775 -0.01173025
v 0.00217500 -0.00712470 -0.01200486
v -0.00060831 -0.00712470 -0.00873432
v 0.00651812 -0.00551550 -0.01057340
v 0.00858709 -0.00551550 -0.00781478
v 0.00835720 -0.00551550 -0.00666535
v 0.00789743 -0.00712470 -0.01034351
v 0.00835720 -0.00712470 -0.00758489
f 7 4 1
f 5 2 1
f 10 7 1
f 9 3 2
f 2 12 1
f 3 12 2
f 9 12 3
f 4 5 1
f 5 9 2
f 4 6 5
f 6 9 5
f 8 7 10
f 6 8 13
f 6 14 9
f 12 10 1
f 11 13 10
f 12 11 10
f 12 14 11
f 13 8 10
f 14 6 13
f 14 12 9
f 14 13 11
f 6 4 7
f 8 6 7
