# https://github.com/mikedh/trimesh

o cmr_v4_03.obj
v -0.00957383 -0.01011320 0.00781740
v -0.00957383 -0.01356148 0.00781740
v -0.00681521 -0.01034309 0.01172544
v -0.00681521 -0.01402125 0.01172544
v -0.00796463 -0.01677987 0.00896683
v -0.00589567 -0.01815918 0.00804729
v 0.00192042 -0.01011320 0.00919671
v 0.00192042 -0.01011320 0.01287487
v -0.00198762 -0.01953849 0.00873694
v 0.00192042 -0.01884883 0.00919671
v -0.00336693 -0.01884883 0.01195533
v 0.00192042 -0.01815918 0.01241510
f 2 3 1
f 1 6 2
f 4 2 5
f 1 7 6
f 4 3 2
f 3 8 1
f 3 4 8
f 5 2 6
f 6 11 5
f 5 11 4
f 8 7 1
f 8 4 11
f 7 8 10
f 9 6 10
f 11 6 9
f 10 6 7
f 10 12 9
f 9 12 11
f 8 12 10
f 11 12 8
