# https://github.com/mikedh/trimesh

o cmr_v4_08.obj
v 0.00192042 -0.00528562 0.00873694
v 0.00375950 -0.00551550 0.00804729
v 0.00192042 -0.00528562 0.01195533
v 0.00343770 -0.00528562 0.01183862
v 0.00350137 -0.00528562 0.01181968
v 0.00373228 -0.00528562 0.01174611
v 0.00396175 -0.00528562 0.01166811
v 0.00356756 -0.00600789 0.01213817
v 0.00359856 -0.00602169 0.01213541
v 0.00385437 -0.00615591 0.01211714
v 0.00192042 -0.00735458 0.00919671
v 0.00192042 -0.00689481 0.01264499
v 0.00628824 -0.00528562 0.00850705
v 0.00464051 -0.00528562 0.01140779
v 0.00486329 -0.00528562 0.01131234
v 0.00513939 -0.00528562 0.01118770
v 0.00509887 -0.00566551 0.01139304
v 0.00418966 -0.00528562 0.01158570
v 0.00441595 -0.00528562 0.01149892
v 0.00411424 -0.00631268 0.01210311
v 0.00502176 -0.00616296 0.01167279
v 0.00582847 -0.00712470 0.01011625
v 0.00437869 -0.00649266 0.01209338
v 0.00464830 -0.00669661 0.01208801
v 0.00491473 -0.00687355 0.01206558
v 0.00490893 -0.00691315 0.01208712
v 0.00490893 -0.00735458 0.01218522
f 2 11 1
f 11 3 1
f 13 2 1
f 4 13 1
f 13 11 2
f 3 4 1
f 8 4 3
f 12 8 3
f 5 6 4
f 6 7 4
f 7 18 4
f 18 19 4
f 26 9 8
f 11 12 3
f 27 12 11
f 12 27 8
f 16 22 13
f 15 16 4
f 16 13 4
f 19 14 4
f 14 15 4
f 16 17 22
f 13 22 11
f 26 10 9
f 26 20 10
f 26 23 20
f 26 24 23
f 27 26 8
f 17 21 27
f 27 21 25
f 22 27 11
f 26 27 25
f 17 27 22
f 9 5 4
f 8 9 4
f 10 6 5
f 9 10 5
f 20 7 6
f 10 20 6
f 23 18 7
f 20 23 7
f 24 19 18
f 23 24 18
f 19 25 14
f 24 25 19
f 26 25 24
f 21 15 14
f 25 21 14
f 17 16 15
f 21 17 15
