# https://github.com/mikedh/trimesh

o cmr_v4_02.obj
v -0.00819452 -0.00551550 -0.00758489
v -0.00658532 -0.01448102 -0.01057340
v -0.00819452 -0.01264194 -0.00781478
v -0.00658532 -0.01471090 -0.00942397
v -0.00523790 -0.00551550 -0.01094757
v -0.00533392 -0.00625908 -0.01114428
v -0.00519623 -0.00674180 -0.01136717
v -0.00517513 -0.00674993 -0.01137986
v -0.00555629 -0.00551550 -0.01078846
v -0.00502206 -0.00551550 -0.01105028
v -0.00480426 -0.00551550 -0.01114882
v -0.00458462 -0.00551550 -0.01124314
v -0.00496262 -0.00684817 -0.01150775
v -0.00487253 -0.00689676 -0.01156200
v -0.00473161 -0.00680930 -0.01159450
v -0.00424984 -0.00656332 -0.01170726
v -0.00436319 -0.00551550 -0.01133322
v -0.00417560 -0.00551550 -0.01140535
v -0.00405659 -0.00551550 -0.01140535
v -0.00448899 -0.00667654 -0.01165100
v -0.00408675 -0.00672204 -0.01175299
v -0.00405659 -0.00551550 -0.00758489
v -0.00428647 -0.01471090 -0.01195271
v -0.00428647 -0.01471090 -0.00942397
f 9 7 1
f 7 2 1
f 3 22 1
f 2 3 1
f 4 3 2
f 4 24 3
f 9 6 7
f 8 13 7
f 7 14 2
f 13 14 7
f 15 20 14
f 21 20 16
f 20 21 14
f 5 9 22
f 5 22 10
f 22 11 10
f 22 17 12
f 22 12 11
f 22 18 17
f 22 19 18
f 22 21 19
f 21 23 14
f 22 9 1
f 22 24 21
f 14 23 2
f 23 4 2
f 24 23 21
f 23 24 4
f 24 22 3
f 18 19 16
f 19 21 16
f 18 20 17
f 20 18 16
f 17 20 15
f 17 15 12
f 15 13 12
f 12 13 11
f 15 14 13
f 10 11 8
f 11 13 8
f 6 5 10
f 6 8 7
f 6 10 8
f 9 5 6
