# https://github.com/mikedh/trimesh

o cmr_v4_12.obj
v -0.00635544 -0.01517067 -0.01057340
v -0.00635544 -0.01494079 -0.00942397
v -0.00382670 -0.01792929 -0.01057340
v -0.00382670 -0.01792929 -0.00919409
v -0.00290716 -0.01471090 -0.01287225
v -0.00060831 -0.01471090 -0.01241248
v -0.00060831 -0.01471090 -0.00896420
v -0.00083820 -0.01861895 -0.01218259
v -0.00060831 -0.01930860 -0.00896420
f 2 5 1
f 4 2 1
f 7 2 4
f 1 3 4
f 1 8 3
f 1 5 8
f 6 5 7
f 6 8 5
f 7 5 2
f 7 9 6
f 9 8 6
f 4 3 9
f 4 9 7
f 3 8 9
