# https://github.com/mikedh/trimesh

o cmr_v4_18.obj
v -0.00819452 -0.00551550 -0.00758489
v -0.00934394 -0.00551550 -0.00413662
v -0.00842440 -0.00988332 -0.00758489
v -0.00934394 -0.00988332 -0.00413662
v -0.00405659 -0.00551550 -0.00758489
v -0.00405659 -0.00551550 -0.00413662
v -0.00566578 -0.00988332 -0.00758489
v -0.00405659 -0.00781435 -0.00758489
v -0.00658532 -0.00988332 -0.00413662
f 1 3 2
f 2 6 1
f 3 1 8
f 3 7 9
f 2 3 4
f 2 4 9
f 9 4 3
f 8 1 5
f 1 6 5
f 5 6 8
f 9 6 2
f 8 7 3
f 7 8 9
f 9 8 6
