# https://github.com/mikedh/trimesh
v -0.01003359889984131 0.00643504381179810 0.00551854991912842
v -0.00934394359588623 0.00643504381179810 0.00804728507995606
v -0.01003359889984131 0.01011320400238037 0.00551854991912842
v -0.00773474931716919 0.01011320400238037 0.00551854991912842
v -0.00934394359588623 0.01011320400238037 0.00827717018127441
v -0.00497612905502319 0.00666492891311646 0.00528866529464722
v -0.00405658912658691 0.00643504381179810 0.00758751535415649
v -0.00543589878082275 0.01011320400238037 0.00827717018127441
f 3 6 1
f 1 2 5
f 1 7 2
f 1 5 3
f 4 3 5
f 6 3 4
f 5 2 8
f 4 5 8
f 6 7 1
f 7 8 2
f 6 8 7
f 8 6 4
