# https://github.com/mikedh/trimesh
v -0.00888417434692383 0.00643504381179810 0.00873694038391113
v -0.00773474931716919 0.00643504381179810 0.01034613609313965
v -0.00934394359588623 0.00873389339447021 0.00827717018127441
v -0.00934394359588623 0.01011320400238037 0.00827717018127441
v -0.00405658912658691 0.00643504381179810 0.00827717018127441
v -0.00405658912658691 0.00689481353759766 0.01195532989501953
v -0.00405658912658691 0.01011320400238037 0.00827717018127441
v -0.00658532428741455 0.01011320400238037 0.01172544479370117
v -0.00405658912658691 0.01011320400238037 0.01195532989501953
f 3 1 2
f 3 5 1
f 2 1 5
f 2 4 3
f 4 5 3
f 8 4 2
f 5 7 6
f 2 6 8
f 5 6 2
f 4 7 5
f 9 7 4
f 4 8 9
f 6 7 9
f 9 8 6
