# https://github.com/mikedh/trimesh
v -0.00934394359588623 0.00988331890106201 -0.00482627439498901
v -0.01026348400115967 0.00988331890106201 0.00253004550933838
v -0.00934394359588623 0.01195228385925293 -0.00482627439498901
v -0.01026348400115967 0.01195228385925293 0.00253004550933838
v -0.00658532428741455 0.00988331890106201 -0.00482627439498901
v -0.00773474931716919 0.00988331890106201 0.00253004550933838
v -0.00704509401321411 0.01126262950897217 -0.00482627439498901
v -0.00842440414428711 0.01195228385925293 0.00253004550933838
f 2 4 1
f 1 6 2
f 2 6 8
f 4 3 1
f 7 1 3
f 8 4 2
f 8 3 4
f 5 1 7
f 5 6 1
f 7 6 5
f 8 7 3
f 6 7 8
