# https://github.com/mikedh/trimesh
v -0.00819451904296875 0.00988331890106201 -0.00781477928161621
v -0.00911405849456787 0.00988331890106201 -0.00574581480026245
v -0.00911405849456787 0.00988331890106201 -0.00482627439498901
v -0.00750486421585083 0.01287182426452637 -0.00781477928161621
v -0.00911405849456787 0.01195228385925293 -0.00482627439498901
v -0.00566578435897827 0.01011320400238037 -0.00758489465713501
v -0.00658532428741455 0.00988331890106201 -0.00482627439498901
v -0.00727497911453247 0.01195228385925293 -0.00482627439498901
f 5 1 2
f 2 3 5
f 7 3 2
f 3 8 5
f 1 7 2
f 3 7 8
f 5 4 1
f 8 4 5
f 7 1 6
f 1 4 6
f 6 8 7
f 6 4 8
