# https://github.com/mikedh/trimesh
v -0.00670875692367554 -0.00000173589994665 -0.00824587059020996
v -0.00673628568649292 0.00009928024560213 -0.00827950668334961
v -0.00642309045791626 0.00015090598165989 -0.00853904056549072
v -0.00625374412536621 0.00015279303491116 -0.00866545295715332
v -0.00607817602157593 0.00012973278760910 -0.00878313159942627
v -0.00588279056549072 0.00007638344913721 -0.00889928627014160
v -0.00589677906036377 0.00008181803673506 -0.00889183425903320
v -0.00555157899856567 0.00015100765228271 -0.00913571166992187
v -0.00572654867172241 0.00012418361753225 -0.00901713085174561
v -0.00499376583099365 0.00008190938085318 -0.00943623256683350
v -0.00537085914611816 0.00015289182960987 -0.00924524307250977
v -0.00518478536605835 0.00012982881069183 -0.00934548282623291
v -0.00586410427093506 -0.00000173589994665 -0.00887134647369385
v -0.00748366355895996 -0.00000173589994665 -0.00754713392257690
v -0.00734083557128906 0.00042092010378838 -0.00792051982879639
v -0.00934394359588623 -0.00000173589994665 -0.00413661956787109
v -0.00750486421585083 0.00551550388336182 -0.00896420478820801
v -0.00714030933380127 0.00332817506790161 -0.00905534362792969
v -0.00681166124343872 0.00370625019073486 -0.00943125152587891
v -0.00696524381637573 0.00351551866531372 -0.00925382709503174
v -0.00665799283981323 0.00392382526397705 -0.00961211585998535
v -0.00634957647323608 0.00444233369827270 -0.00998534584045410
v -0.00619440937042236 0.00474491786956787 -0.01017833614349365
v -0.00547013282775879 0.00551550388336182 -0.01082260894775391
v -0.00525664138793945 0.00551550388336182 -0.01092982769012451
v -0.00504113483428955 0.00551550388336182 -0.01103290748596191
v -0.00603830337524414 0.00507768678665161 -0.01037603759765625
v -0.00588103866577148 0.00544173097610474 -0.01057880783081055
v -0.00585152196884155 0.00551550388336182 -0.01061754608154297
v -0.00568150758743286 0.00551550388336182 -0.01071130180358887
v -0.00650403690338135 0.00416892242431641 -0.00979670906066894
v -0.00934394359588623 0.00551550388336182 -0.00413661956787109
v -0.00495776462554932 0.00006854491680861 -0.00945116329193115
v -0.00490629482269287 -0.00000173589994665 -0.00944685173034668
v -0.00487661886215210 -0.00000173589994665 -0.00945696735382080
v -0.00491218662261963 0.00094304937124252 -0.00973866558074951
v -0.00483511114120483 0.00192584109306335 -0.01007058143615723
v -0.00060831421613693 -0.00000173589994665 -0.01011362934112549
v -0.00060831421613693 -0.00000173589994665 -0.00413661956787109
v -0.00473581409454346 0.00280854845046997 -0.01037894630432129
v -0.00461394500732422 0.00357559251785278 -0.01065903663635254
v -0.00446962928771973 0.00421243619918823 -0.01090628623962402
v -0.00427559995651245 0.00439900684356689 -0.01103045082092285
v -0.00430088758468628 0.00471418285369873 -0.01111984825134277
v -0.00482367086410522 0.00551550388336182 -0.01113181972503662
v -0.00460435533523560 0.00551550388336182 -0.01122651672363281
v -0.00429151201248169 0.00551550388336182 -0.01135450458526611
v -0.00060831421613693 0.00551550388336182 -0.01172282409667969
v -0.00060831421613693 0.00505573368072510 -0.00413661956787109
f 18 15 14
f 35 14 1
f 13 34 35
f 13 35 1
f 16 14 35
f 16 17 14
f 16 39 32
f 17 18 14
f 18 21 19
f 18 19 20
f 18 31 21
f 18 22 31
f 17 27 23
f 17 28 27
f 17 29 28
f 24 29 25
f 25 29 26
f 26 29 45
f 29 46 45
f 24 30 29
f 17 22 18
f 17 23 22
f 17 32 48
f 16 32 17
f 35 43 38
f 38 48 39
f 16 35 39
f 35 38 39
f 29 47 46
f 43 44 47
f 17 48 29
f 29 48 47
f 43 47 48
f 38 43 48
f 32 39 49
f 32 49 48
f 39 48 49
f 33 35 34
f 33 36 35
f 35 36 37
f 35 37 40
f 35 40 41
f 35 41 42
f 35 42 44
f 35 44 43
f 42 46 44
f 44 46 47
f 41 45 42
f 42 45 46
f 26 41 40
f 26 45 41
f 25 26 40
f 25 40 37
f 24 37 36
f 24 25 37
f 10 30 36
f 24 36 30
f 10 36 33
f 10 12 28
f 10 28 30
f 28 29 30
f 11 27 12
f 12 27 28
f 8 23 11
f 11 23 27
f 6 8 13
f 6 9 8
f 10 34 12
f 8 34 13
f 8 11 34
f 11 12 34
f 10 33 34
f 8 9 22
f 8 22 23
f 6 7 9
f 7 31 9
f 9 31 22
f 5 31 7
f 5 21 31
f 4 19 5
f 5 19 21
f 3 20 4
f 4 20 19
f 3 1 2
f 3 4 13
f 3 13 1
f 6 13 7
f 5 7 13
f 4 5 13
f 3 2 15
f 3 15 20
f 18 20 15
f 1 15 2
f 15 1 14
