# https://github.com/mikedh/trimesh
v -0.00405658912658691 0.00551550388336182 -0.00873431968688965
v -0.00405658912658691 0.00551550388336182 -0.00413661956787109
v -0.00405658912658691 0.00643504381179810 -0.00413661956787109
v -0.00382670426368713 0.00873389339447021 -0.00873431968688965
v -0.00129796922206879 0.00551550388336182 -0.00873431968688965
v -0.00129796922206879 0.00666492891311646 -0.00850443363189697
v -0.00244739437103271 0.00551550388336182 -0.00413661956787109
f 3 4 1
f 1 5 2
f 4 5 1
f 2 3 1
f 2 7 3
f 4 3 7
f 5 4 6
f 4 7 6
f 6 7 5
f 5 7 2
