# https://github.com/mikedh/trimesh
v -0.00428647422790527 0.00988331890106201 -0.01218259429931641
v -0.00428647422790527 0.00988331890106201 -0.00919408988952637
v -0.00428647422790527 0.01471090412139893 -0.01218259429931641
v -0.00428647422790527 0.01471090412139893 -0.00942397403717041
v -0.00060831421613693 0.00988331890106201 -0.01241247940063477
v -0.00060831421613693 0.00988331890106201 -0.00896420478820801
v -0.00060831421613693 0.01471090412139893 -0.01241247940063477
v -0.00060831421613693 0.01471090412139893 -0.00896420478820801
f 5 1 3
f 4 1 2
f 1 6 2
f 4 3 1
f 7 3 4
f 2 8 4
f 1 5 6
f 2 6 8
f 6 5 8
f 7 5 3
f 8 5 7
f 4 8 7
