# https://github.com/mikedh/trimesh
v 0.00192042064666748 0.00735458374023438 0.00919671058654785
v 0.00192042064666748 0.00735458374023438 0.01264498519897461
v 0.00238019061088562 0.01861894798278809 0.00919671058654785
v 0.00192042064666748 0.01746952247619629 0.01264498519897461
v 0.00559858036041260 0.00735458374023438 0.00965647983551025
v 0.00375950074195862 0.01057297325134277 0.01310475540161133
v 0.00490892601013184 0.00735458374023438 0.01218521595001221
v 0.00513881063461304 0.01540055847167969 0.01034613609313965
v 0.00467904043197632 0.01448101902008057 0.01241510009765625
f 3 5 1
f 2 4 1
f 6 4 2
f 7 2 1
f 6 2 7
f 4 3 1
f 3 4 8
f 9 4 6
f 1 5 7
f 5 8 9
f 6 7 9
f 9 7 5
f 5 3 8
f 9 8 4
