# https://github.com/mikedh/trimesh
v 0.00192042064666748 0.00528561925888061 0.00873694038391113
v 0.00375950074195862 0.00551550388336182 0.00804728507995606
v 0.00192042064666748 0.00528561925888061 0.01195532989501953
v 0.00343769955635071 0.00528561925888061 0.01183861637115479
v 0.00350136780738831 0.00528561925888061 0.01181967639923096
v 0.00373228359222412 0.00528561925888061 0.01174611377716064
v 0.00396175003051758 0.00528561925888061 0.01166810989379883
v 0.00356755876541138 0.00600789356231689 0.01213817310333252
v 0.00359856319427490 0.00602168607711792 0.01213540840148926
v 0.00385437178611755 0.00615590715408325 0.01211713504791260
v 0.00192042064666748 0.00735458374023438 0.00919671058654785
v 0.00192042064666748 0.00689481353759766 0.01264498519897461
v 0.00628823566436768 0.00528561925888061 0.00850705432891846
v 0.00464051342010498 0.00528561925888061 0.01140778541564941
v 0.00486328649520874 0.00528561925888061 0.01131234264373779
v 0.00513938760757446 0.00528561925888061 0.01118770122528076
v 0.00509886932373047 0.00566550540924072 0.01139304447174072
v 0.00418966150283813 0.00528561925888061 0.01158570194244385
v 0.00441594600677490 0.00528561925888061 0.01149891567230225
v 0.00411423969268799 0.00631268453598022 0.01210311031341553
v 0.00502176380157471 0.00616296005249023 0.01167279338836670
v 0.00582846546173096 0.00712469911575317 0.01011625003814697
v 0.00437868690490723 0.00649266052246094 0.01209337997436523
v 0.00464830017089844 0.00669660949707031 0.01208800601959228
v 0.00491472959518433 0.00687354707717895 0.01206558322906494
v 0.00490892601013184 0.00691315126419067 0.01208712005615234
v 0.00490892601013184 0.00735458374023438 0.01218521595001221
f 1 11 2
f 1 3 11
f 1 2 13
f 1 13 4
f 2 11 13
f 1 4 3
f 3 4 8
f 3 8 12
f 4 6 5
f 4 7 6
f 4 18 7
f 4 19 18
f 8 9 26
f 3 12 11
f 11 12 27
f 8 27 12
f 13 22 16
f 4 16 15
f 4 13 16
f 4 14 19
f 4 15 14
f 22 17 16
f 11 22 13
f 9 10 26
f 10 20 26
f 20 23 26
f 23 24 26
f 8 26 27
f 27 21 17
f 25 21 27
f 11 27 22
f 25 27 26
f 22 27 17
f 4 5 9
f 4 9 8
f 5 6 10
f 5 10 9
f 6 7 20
f 6 20 10
f 7 18 23
f 7 23 20
f 18 19 24
f 18 24 23
f 14 25 19
f 19 25 24
f 24 25 26
f 14 15 21
f 14 21 25
f 15 16 17
f 15 17 21
