# https://github.com/mikedh/trimesh
v 0.00192042064666748 -0.00000173589994665 0.00253004550933838
v 0.00192042064666748 -0.00000173589994665 0.01034613609313965
v 0.00319722008705139 0.00131568920612335 0.01062558364868164
v 0.00339157009124756 0.00106087148189545 0.01051739025115967
v 0.00259146046638489 0.00193565702438355 0.01090512180328369
v 0.00217856526374817 0.00242802596092224 0.01108562850952148
v 0.00238288164138794 0.00209235930442810 0.01098258304595947
v 0.00237651610374451 0.00209630322456360 0.01098466968536377
v 0.00299891018867493 0.00154681265354156 0.01072641944885254
v 0.00279689693450928 0.00175365018844604 0.01081967067718506
v 0.00362231779098511 0.00008783762902021 0.01016698837280273
v 0.00391179156303406 0.00022619403898716 0.01017727279663086
v 0.00395307469367981 0.00023411238193512 0.01016261863708496
v 0.00376743102073669 0.00048278400301933 0.01027991962432861
v 0.00415428304672241 0.00026894453167915 0.01008606529235840
v 0.00435380125045776 0.00029968789219856 0.01000497436523438
v 0.00358171820640564 0.00078300261497498 0.01040208148956299
v 0.00455151557922363 0.00032631954550743 0.00991938495635986
v 0.00474731683731079 0.00034882020950317 0.00982933807373047
v 0.00494108533859253 0.00036717212200165 0.00973488330841064
v 0.00513272047042847 0.00038136252760887 0.00963606548309326
v 0.00192042064666748 0.00505573368072510 0.00253004550933838
v 0.00197058665752411 0.00274311757087707 0.01118152523040771
v 0.00192042064666748 0.00281123328208923 0.01120225620269775
v 0.00192042064666748 0.00527755165100098 0.01162455081939697
v 0.00205054163932800 0.00527848482131958 0.01160119056701660
v 0.00227757716178894 0.00528000307083130 0.01155587863922119
v 0.00250369691848755 0.00528140306472778 0.01150617980957031
v 0.00272881531715393 0.00528268527984619 0.01145211219787598
v 0.00295284843444824 0.00528384876251221 0.01139369678497314
v 0.00317571568489075 0.00528489351272583 0.01133095264434814
v 0.00334962701797485 0.00528561925888061 0.01127833747863769
v 0.00339731645584106 0.00528561925888061 0.01126387405395508
v 0.00361754512786865 0.00528561925888061 0.01119242191314697
v 0.00383636140823364 0.00528561925888061 0.01111673641204834
v 0.00405367755889893 0.00528561925888061 0.01103684902191162
v 0.00426940965652466 0.00528561925888061 0.01095279026031494
v 0.00448348379135132 0.00528561925888061 0.01086458778381348
v 0.00469581842422485 0.00528561925888061 0.01077227783203125
v 0.00490633487701416 0.00528561925888061 0.01067589187622070
v 0.00511495590209961 0.00528561925888061 0.01057546615600586
v 0.00569910907745361 -0.00000173589994665 0.00253004550933838
v 0.00569371986389160 0.00039887157082558 0.00931398677825928
v 0.00587572860717773 0.00039633941650391 0.00919828605651856
v 0.00611388826370239 -0.00000173589994665 0.00846630573272705
v 0.00612254333496094 0.00000610950123519 0.00851355648040772
v 0.00623166513442993 0.00037872883677483 0.00895474529266357
v 0.00605507946014404 0.00038962343335152 0.00907851409912109
v 0.00639010906219482 0.00036498874425888 0.00883828163146973
v 0.00640823221206665 0.00039230012893677 0.00883094787597656
v 0.00661248636245728 0.00070062375068665 0.00874326133728027
v 0.00681569099426270 0.00100788795948029 0.00865090084075928
v 0.00532210826873779 0.00039138033986092 0.00953293895721436
v 0.00550914239883423 0.00039721810817719 0.00942556095123291
v 0.00701771450042725 0.00131390142440796 0.00855385494232178
v 0.00721843624114990 0.00161848771572113 0.00845210933685303
v 0.00741771554946899 0.00192144131660461 0.00834566307067871
v 0.00770369768142700 0.00235702633857727 0.00818488216400146
v 0.00802912998199463 0.00341302537918091 0.00253004550933838
v 0.00850201416015625 0.00376364660263062 0.00587389230728149
v 0.00720777559280395 0.00505573368072510 0.00253004550933838
v 0.00845990467071533 0.00401229286193848 0.00284307765960693
v 0.00678197240829468 0.00415207576751709 0.00934234809875488
v 0.00532159805297852 0.00528561925888061 0.01047104167938233
v 0.00552619409561157 0.00528561925888061 0.01036265182495117
v 0.00572866249084473 0.00528561925888061 0.01025033950805664
v 0.00592892789840698 0.00528561925888061 0.01013414764404297
v 0.00676778602600098 0.00418265390396118 0.00935886001586914
v 0.00662696504592896 0.00446373414993286 0.00951810550689697
v 0.00631010913848877 0.00514942312240601 0.00987101745605469
v 0.00628823566436768 0.00528561925888061 0.00988636493682861
v 0.00612692070007324 0.00528561925888061 0.01001411533355713
v 0.00625161314010620 0.00528561925888061 0.00993519496917725
v 0.00646964693069458 0.00479540395736694 0.00969421577453613
v 0.00722473001480103 0.00324702882766724 0.00880525398254394
v 0.00750636768341064 0.00271288633346558 0.00844524669647217
v 0.00736687040328979 0.00297316694259644 0.00862545394897461
v 0.00707990455627441 0.00353465461730957 0.00898465442657471
v 0.00693233537673950 0.00383626675605774 0.00916368198394775
f 1 22 42
f 1 2 22
f 1 42 45
f 1 45 2
f 2 11 8
f 4 11 17
f 3 11 4
f 9 10 11
f 5 11 10
f 3 9 11
f 2 8 24
f 6 24 8
f 7 8 11
f 5 7 11
f 2 45 11
f 11 12 14
f 11 14 17
f 22 61 42
f 22 71 61
f 2 25 22
f 2 24 25
f 6 23 24
f 22 25 71
f 25 26 32
f 26 27 32
f 27 28 32
f 28 29 32
f 29 30 32
f 30 31 32
f 25 32 71
f 32 33 73
f 34 35 73
f 33 34 73
f 35 36 73
f 36 37 73
f 37 38 73
f 38 39 73
f 11 45 46
f 42 61 59
f 59 61 62
f 60 62 61
f 60 61 71
f 32 73 71
f 39 40 73
f 40 41 73
f 41 64 73
f 64 65 73
f 65 66 73
f 66 67 73
f 68 74 69
f 70 74 71
f 70 71 73
f 67 72 73
f 68 71 74
f 78 58 79
f 75 77 58
f 77 76 58
f 75 58 78
f 60 71 58
f 63 79 58
f 63 58 68
f 68 58 71
f 42 62 45
f 42 59 62
f 45 62 60
f 45 49 46
f 45 50 49
f 45 51 50
f 45 52 51
f 45 55 52
f 45 56 55
f 45 57 56
f 45 60 57
f 60 58 57
f 11 46 12
f 12 46 13
f 13 46 15
f 15 46 16
f 16 46 18
f 18 46 19
f 20 46 21
f 21 46 53
f 46 54 53
f 43 54 46
f 43 46 44
f 46 49 47
f 44 46 47
f 44 47 48
f 19 46 20
f 23 26 24
f 24 26 25
f 6 27 23
f 23 27 26
f 7 28 8
f 6 8 28
f 6 28 27
f 5 29 7
f 7 29 28
f 5 10 30
f 5 30 29
f 9 31 10
f 10 31 30
f 3 33 9
f 9 33 31
f 31 33 32
f 3 4 34
f 3 34 33
f 4 17 35
f 4 35 34
f 14 36 17
f 17 36 35
f 12 13 37
f 12 37 14
f 14 37 36
f 13 15 38
f 13 38 37
f 15 16 39
f 15 39 38
f 16 18 40
f 16 40 39
f 18 19 41
f 18 41 40
f 19 20 64
f 19 64 41
f 20 21 65
f 20 65 64
f 21 53 66
f 21 66 65
f 53 54 67
f 53 67 66
f 43 72 54
f 54 72 67
f 43 44 70
f 43 70 72
f 70 73 72
f 44 48 74
f 44 74 70
f 47 69 48
f 48 69 74
f 47 49 69
f 49 50 63
f 49 63 69
f 63 68 69
f 50 51 79
f 50 79 63
f 51 52 79
f 52 78 79
f 52 55 78
f 55 75 78
f 55 56 75
f 56 77 75
f 56 57 77
f 77 57 76
f 57 58 76
