# https://github.com/mikedh/trimesh
v -0.00060831421613693 0.00712469911575317 -0.01241247940063477
v -0.00060831421613693 0.00712469911575317 -0.00873431968688965
v -0.00060831421613693 0.01540055847167969 -0.01241247940063477
v -0.00060831421613693 0.01540055847167969 -0.00873431968688965
v 0.00812731552124023 0.00781435394287109 -0.01034351444244385
v 0.00812731552124023 0.00712469911575317 -0.00758489465713501
v 0.00559858036041260 0.01540055847167969 -0.01172282409667969
v 0.00720777559280395 0.01310170936584473 -0.01149293899536133
v 0.00766754579544067 0.01540055847167969 -0.00988374423980713
v 0.00766754579544067 0.01540055847167969 -0.00758489465713501
f 2 4 1
f 1 6 2
f 7 1 3
f 4 3 1
f 7 3 4
f 10 4 2
f 6 1 5
f 1 8 5
f 2 6 10
f 5 10 6
f 7 8 1
f 5 8 9
f 9 8 7
f 4 10 7
f 9 10 5
f 7 10 9
