# https://github.com/mikedh/trimesh
v -0.00323231863975525 0.00551550388336182 -0.01171871757507324
v -0.00321996641159058 0.00551550388336182 -0.01172214603424072
v -0.00322510337829590 0.00562194061279297 -0.01175323486328125
v -0.00405658912658691 0.00551550388336182 -0.01144927310943604
v -0.00391534066200256 0.00551550388336182 -0.01150048160552979
v -0.00368908286094666 0.00551550388336182 -0.01157761001586914
v -0.00346138072013855 0.00551550388336182 -0.01165036487579346
v -0.00405658912658691 0.00696094036102295 -0.01190185356140137
v -0.00364906620979309 0.00767428207397461 -0.01225750160217285
v -0.00330723810195923 0.00677500200271606 -0.01208268070220947
v -0.00334490704536438 0.00689693641662598 -0.01210947513580322
v -0.00354202890396118 0.00756575059890747 -0.01225610256195068
v -0.00405658912658691 0.00551550388336182 -0.00873431968688965
v -0.00391548514366150 0.00796714305877686 -0.01226287651062012
v -0.00405658912658691 0.00813415336608887 -0.01226671600341797
v -0.00405658912658691 0.00988331890106201 -0.01241247940063477
v -0.00405658912658691 0.00919366455078125 -0.00873431968688965
v -0.00083639293909073 0.00562194061279297 -0.01175323486328125
v -0.00060831421613693 0.00551550388336182 -0.01172214603424072
v -0.00060831421613693 0.00551623868942261 -0.01172236061096191
v -0.00060875207185745 0.00552382278442383 -0.01172457504272461
v -0.00060831421613693 0.00551550388336182 -0.00873431968688965
v -0.00083819919824600 0.00988331890106201 -0.01264236450195312
v -0.00060831421613693 0.00988331890106201 -0.00896420478820801
f 1 2 7
f 2 4 5
f 2 5 6
f 2 6 7
f 15 8 4
f 10 11 12
f 3 10 18
f 2 19 13
f 10 12 18
f 2 13 4
f 13 17 4
f 13 22 17
f 9 14 15
f 9 15 12
f 15 4 16
f 12 15 16
f 16 4 17
f 12 16 23
f 16 17 24
f 12 21 18
f 12 23 21
f 19 20 22
f 20 21 23
f 13 19 22
f 20 24 22
f 16 24 23
f 20 23 24
f 17 22 24
f 2 3 18
f 2 18 19
f 18 20 19
f 18 21 20
f 1 11 2
f 2 11 3
f 3 11 10
f 1 7 9
f 1 9 11
f 9 12 11
f 6 14 7
f 7 14 9
f 6 5 8
f 6 8 14
f 14 8 15
f 8 5 4
