# https://github.com/mikedh/trimesh
v -0.01003359889984131 -0.00000173589994665 0.00253004550933838
v -0.00911405849456787 0.00022814910113811 0.00712774515151978
v -0.00862943172454834 0.00284513330459595 0.00838777446746826
v -0.01026348400115967 0.00643504381179810 0.00253004550933838
v -0.01026348400115967 0.00643504381179810 0.00436912536621094
v -0.00832687282562256 0.00643504381179810 0.00921065425872803
v -0.00822367382049561 0.00643504381179810 0.00926142024993896
v -0.00766293382644653 0.00639954948425293 0.00953059673309326
v -0.00405658912658691 -0.00000173589994665 0.00253004550933838
v -0.00593923854827881 0.00309909796714783 0.00975882720947266
v -0.00405658912658691 -0.00000173589994665 0.00942659473419189
v -0.00405658912658691 0.00597527360916138 0.00253004550933838
v -0.00405658912658691 0.00392382502555847 0.01083979701995850
v -0.00405658912658691 0.00575339508056641 0.01118331813812256
f 1 2 5
f 2 3 5
f 1 11 2
f 1 4 9
f 2 10 3
f 1 5 4
f 4 5 7
f 4 8 12
f 5 3 6
f 4 7 8
f 5 6 7
f 1 9 11
f 2 11 10
f 9 13 11
f 11 13 10
f 4 12 9
f 9 12 13
f 12 8 14
f 12 14 13
f 8 3 10
f 6 3 7
f 7 3 8
f 8 10 13
f 8 13 14
