# https://github.com/mikedh/trimesh
v -0.00635543870925903 0.01517067337036133 -0.01057339954376221
v -0.00635543870925903 0.01494078922271729 -0.00942397403717041
v -0.00382670426368713 0.01792929267883301 -0.01057339954376221
v -0.00382670426368713 0.01792929267883301 -0.00919408988952637
v -0.00290716409683228 0.01471090412139893 -0.01287224960327148
v -0.00060831421613693 0.01471090412139893 -0.01241247940063477
v -0.00060831421613693 0.01471090412139893 -0.00896420478820801
v -0.00083819919824600 0.01861894798278809 -0.01218259429931641
v -0.00060831421613693 0.01930860328674316 -0.00896420478820801
f 1 5 2
f 1 2 4
f 4 2 7
f 4 3 1
f 3 8 1
f 8 5 1
f 7 5 6
f 5 8 6
f 2 5 7
f 6 9 7
f 6 8 9
f 9 3 4
f 7 9 4
f 9 8 3
