# https://github.com/mikedh/trimesh
v -0.01026348400115967 0.00643504381179810 0.00253004550933838
v -0.01003359889984131 0.00643504381179810 0.00551854991912842
v -0.01026348400115967 0.01011320400238037 0.00253004550933838
v -0.00773474931716919 0.01011320400238037 0.00253004550933838
v -0.01003359889984131 0.01011320400238037 0.00551854991912842
v -0.00773474931716919 0.01011320400238037 0.00551854991912842
v -0.00520601415634155 0.00643504381179810 0.00253004550933838
v -0.00497612905502319 0.00666492891311646 0.00459900999069214
v -0.00612555408477783 0.00643504381179810 0.00551854991912842
f 7 1 4
f 5 1 2
f 2 1 9
f 9 5 2
f 4 1 3
f 3 1 5
f 3 5 4
f 6 5 9
f 4 5 6
f 9 1 7
f 8 7 4
f 9 7 8
f 8 6 9
f 4 6 8
