# https://github.com/mikedh/trimesh
v -0.00957382965087891 0.01011320400238037 0.00781739997863770
v -0.00957382965087891 0.01356147861480713 0.00781739997863770
v -0.00681520891189575 0.01034308910369873 0.01172544479370117
v -0.00681520891189575 0.01402124881744385 0.01172544479370117
v -0.00796463441848755 0.01677986717224121 0.00896682548522949
v -0.00589566898345947 0.01815917968750000 0.00804728507995606
v 0.00192042064666748 0.01011320400238037 0.00919671058654785
v 0.00192042064666748 0.01011320400238037 0.01287487030029297
v -0.00198762428760529 0.01953848838806152 0.00873694038391113
v 0.00192042064666748 0.01884883499145508 0.00919671058654785
v -0.00336693429946899 0.01884883499145508 0.01195532989501953
v 0.00192042064666748 0.01815917968750000 0.01241510009765625
f 1 3 2
f 2 6 1
f 5 2 4
f 6 7 1
f 2 3 4
f 1 8 3
f 8 4 3
f 6 2 5
f 5 11 6
f 4 11 5
f 1 7 8
f 11 4 8
f 10 8 7
f 10 6 9
f 9 6 11
f 7 6 10
f 9 12 10
f 11 12 9
f 10 12 8
f 8 12 11
