# https://github.com/mikedh/trimesh
v -0.00819451904296875 0.00551550388336182 -0.00758489465713501
v -0.00658532428741455 0.01448101902008057 -0.01057339954376221
v -0.00819451904296875 0.01264193916320801 -0.00781477928161621
v -0.00658532428741455 0.01471090412139893 -0.00942397403717041
v -0.00523790359497070 0.00551550388336182 -0.01094756507873535
v -0.00533391714096069 0.00625907611846924 -0.01114427947998047
v -0.00519623279571533 0.00674179553985596 -0.01136716556549072
v -0.00517512512207031 0.00674992561340332 -0.01137985992431641
v -0.00555629014968872 0.00551550388336182 -0.01078845787048340
v -0.00502205801010132 0.00551550388336182 -0.01105027961730957
v -0.00480426311492920 0.00551550388336182 -0.01114882087707520
v -0.00458462047576904 0.00551550388336182 -0.01124314212799072
v -0.00496262073516846 0.00684817218780518 -0.01150775051116943
v -0.00487253475189209 0.00689675903320312 -0.01156200218200684
v -0.00473161077499390 0.00680929756164551 -0.01159449958801270
v -0.00424983787536621 0.00656332445144653 -0.01170725631713867
v -0.00436319017410278 0.00551550388336182 -0.01133321762084961
v -0.00417559814453125 0.00551550388336182 -0.01140534687042236
v -0.00405658912658691 0.00551550388336182 -0.01140534687042236
v -0.00448899364471436 0.00667653989791870 -0.01165100479125977
v -0.00408675241470337 0.00672204160690308 -0.01175298786163330
v -0.00405658912658691 0.00551550388336182 -0.00758489465713501
v -0.00428647422790527 0.01471090412139893 -0.01195270919799805
v -0.00428647422790527 0.01471090412139893 -0.00942397403717041
f 1 7 9
f 1 2 7
f 1 22 3
f 1 3 2
f 2 3 4
f 3 24 4
f 7 6 9
f 7 13 8
f 2 14 7
f 7 14 13
f 14 20 15
f 16 20 21
f 14 21 20
f 22 9 5
f 10 22 5
f 10 11 22
f 12 17 22
f 11 12 22
f 17 18 22
f 18 19 22
f 19 21 22
f 14 23 21
f 1 9 22
f 21 24 22
f 2 23 14
f 2 4 23
f 21 23 24
f 4 24 23
f 3 22 24
f 16 19 18
f 16 21 19
f 17 20 18
f 16 18 20
f 15 20 17
f 12 15 17
f 12 13 15
f 11 13 12
f 13 14 15
f 8 11 10
f 8 13 11
f 10 5 6
f 7 8 6
f 8 10 6
f 6 5 9
