# https://github.com/mikedh/trimesh
v -0.00405658912658691 -0.00000173589994665 0.00253004550933838
v -0.00405658912658691 -0.00000173589994665 0.00873694038391113
v -0.00405658912658691 0.00528561925888061 0.00253004550933838
v -0.00405658912658691 0.00528561925888061 0.00873694038391113
v 0.00192042064666748 -0.00000173589994665 0.00253004550933838
v 0.00192042064666748 -0.00000173589994665 0.00873694038391113
v 0.00192042064666748 0.00505573368072510 0.00253004550933838
v 0.00192042064666748 0.00528561925888061 0.00873694038391113
f 2 3 1
f 6 2 1
f 4 2 6
f 1 3 7
f 4 3 2
f 4 8 3
f 1 5 6
f 7 5 1
f 5 7 6
f 7 3 8
f 6 8 4
f 6 7 8
