# https://github.com/mikedh/trimesh

o cmr_v4_21.obj
v 0.00192042 0.00000174 0.00253005
v 0.00192042 0.00000174 0.01034614
v 0.00319722 -0.00131569 0.01062558
v 0.00339157 -0.00106087 0.01051739
v 0.00259146 -0.00193566 0.01090512
v 0.00217857 -0.00242803 0.01108563
v 0.00238288 -0.00209236 0.01098258
v 0.00237652 -0.00209630 0.01098467
v 0.00299891 -0.00154681 0.01072642
v 0.00279690 -0.00175365 0.01081967
v 0.00362232 -0.00008784 0.01016699
v 0.00391179 -0.00022619 0.01017727
v 0.00395307 -0.00023411 0.01016262
v 0.00376743 -0.00048278 0.01027992
v 0.00415428 -0.00026894 0.01008607
v 0.00435380 -0.00029969 0.01000497
v 0.00358172 -0.00078300 0.01040208
v 0.00455152 -0.00032632 0.00991938
v 0.00474732 -0.00034882 0.00982934
v 0.00494109 -0.00036717 0.00973488
v 0.00513272 -0.00038136 0.00963607
v 0.00192042 -0.00505573 0.00253005
v 0.00197059 -0.00274312 0.01118153
v 0.00192042 -0.00281123 0.01120226
v 0.00192042 -0.00527755 0.01162455
v 0.00205054 -0.00527848 0.01160119
v 0.00227758 -0.00528000 0.01155588
v 0.00250370 -0.00528140 0.01150618
v 0.00272882 -0.00528269 0.01145211
v 0.00295285 -0.00528385 0.01139370
v 0.00317572 -0.00528489 0.01133095
v 0.00334963 -0.00528562 0.01127834
v 0.00339732 -0.00528562 0.01126387
v 0.00361755 -0.00528562 0.01119242
v 0.00383636 -0.00528562 0.01111674
v 0.00405368 -0.00528562 0.01103685
v 0.00426941 -0.00528562 0.01095279
v 0.00448348 -0.00528562 0.01086459
v 0.00469582 -0.00528562 0.01077228
v 0.00490633 -0.00528562 0.01067589
v 0.00511496 -0.00528562 0.01057547
v 0.00569911 0.00000174 0.00253005
v 0.00569372 -0.00039887 0.00931399
v 0.00587573 -0.00039634 0.00919829
v 0.00611389 0.00000174 0.00846631
v 0.00612254 -0.00000611 0.00851356
v 0.00623167 -0.00037873 0.00895475
v 0.00605508 -0.00038962 0.00907851
v 0.00639011 -0.00036499 0.00883828
v 0.00640823 -0.00039230 0.00883095
v 0.00661249 -0.00070062 0.00874326
v 0.00681569 -0.00100789 0.00865090
v 0.00532211 -0.00039138 0.00953294
v 0.00550914 -0.00039722 0.00942556
v 0.00701771 -0.00131390 0.00855385
v 0.00721844 -0.00161849 0.00845211
v 0.00741772 -0.00192144 0.00834566
v 0.00770370 -0.00235703 0.00818488
v 0.00802913 -0.00341303 0.00253005
v 0.00850201 -0.00376365 0.00587389
v 0.00720778 -0.00505573 0.00253005
v 0.00845990 -0.00401229 0.00284308
v 0.00678197 -0.00415208 0.00934235
v 0.00532160 -0.00528562 0.01047104
v 0.00552619 -0.00528562 0.01036265
v 0.00572866 -0.00528562 0.01025034
v 0.00592893 -0.00528562 0.01013415
v 0.00676779 -0.00418265 0.00935886
v 0.00662697 -0.00446373 0.00951811
v 0.00631011 -0.00514942 0.00987102
v 0.00628824 -0.00528562 0.00988636
v 0.00612692 -0.00528562 0.01001412
v 0.00625161 -0.00528562 0.00993519
v 0.00646965 -0.00479540 0.00969422
v 0.00722473 -0.00324703 0.00880525
v 0.00750637 -0.00271289 0.00844525
v 0.00736687 -0.00297317 0.00862545
v 0.00707990 -0.00353465 0.00898465
v 0.00693234 -0.00383627 0.00916368
f 42 22 1
f 22 2 1
f 45 42 1
f 2 45 1
f 8 11 2
f 17 11 4
f 4 11 3
f 11 10 9
f 10 11 5
f 11 9 3
f 24 8 2
f 8 24 6
f 11 8 7
f 11 7 5
f 11 45 2
f 14 12 11
f 17 14 11
f 42 61 22
f 61 71 22
f 22 25 2
f 25 24 2
f 24 23 6
f 71 25 22
f 32 26 25
f 32 27 26
f 32 28 27
f 32 29 28
f 32 30 29
f 32 31 30
f 71 32 25
f 73 33 32
f 73 35 34
f 73 34 33
f 73 36 35
f 73 37 36
f 73 38 37
f 73 39 38
f 46 45 11
f 59 61 42
f 62 61 59
f 61 62 60
f 71 61 60
f 71 73 32
f 73 40 39
f 73 41 40
f 73 64 41
f 73 65 64
f 73 66 65
f 73 67 66
f 69 74 68
f 71 74 70
f 73 71 70
f 73 72 67
f 74 71 68
f 79 58 78
f 58 77 75
f 58 76 77
f 78 58 75
f 58 71 60
f 58 79 63
f 68 58 63
f 71 58 68
f 45 62 42
f 62 59 42
f 60 62 45
f 46 49 45
f 49 50 45
f 50 51 45
f 51 52 45
f 52 55 45
f 55 56 45
f 56 57 45
f 57 60 45
f 57 58 60
f 12 46 11
f 13 46 12
f 15 46 13
f 16 46 15
f 18 46 16
f 19 46 18
f 21 46 20
f 53 46 21
f 53 54 46
f 46 54 43
f 44 46 43
f 47 49 46
f 47 46 44
f 48 47 44
f 20 46 19
f 24 26 23
f 25 26 24
f 23 27 6
f 26 27 23
f 8 28 7
f 28 8 6
f 27 28 6
f 7 29 5
f 28 29 7
f 30 10 5
f 29 30 5
f 10 31 9
f 30 31 10
f 9 33 3
f 31 33 9
f 32 33 31
f 34 4 3
f 33 34 3
f 35 17 4
f 34 35 4
f 17 36 14
f 35 36 17
f 37 13 12
f 14 37 12
f 36 37 14
f 38 15 13
f 37 38 13
f 39 16 15
f 38 39 15
f 40 18 16
f 39 40 16
f 41 19 18
f 40 41 18
f 64 20 19
f 41 64 19
f 65 21 20
f 64 65 20
f 66 53 21
f 65 66 21
f 67 54 53
f 66 67 53
f 54 72 43
f 67 72 54
f 70 44 43
f 72 70 43
f 72 73 70
f 74 48 44
f 70 74 44
f 48 69 47
f 74 69 48
f 69 49 47
f 63 50 49
f 69 63 49
f 69 68 63
f 79 51 50
f 63 79 50
f 79 52 51
f 79 78 52
f 78 55 52
f 78 75 55
f 75 56 55
f 75 77 56
f 77 57 56
f 76 57 77
f 76 58 57
