# https://github.com/mikedh/trimesh

o cmr_v4_17.obj
v -0.00323232 -0.00551550 -0.01171872
v -0.00321997 -0.00551550 -0.01172215
v -0.00322510 -0.00562194 -0.01175323
v -0.00405659 -0.00551550 -0.01144927
v -0.00391534 -0.00551550 -0.01150048
v -0.00368908 -0.00551550 -0.01157761
v -0.00346138 -0.00551550 -0.01165036
v -0.00405659 -0.00696094 -0.01190185
v -0.00364907 -0.00767428 -0.01225750
v -0.00330724 -0.00677500 -0.01208268
v -0.00334491 -0.00689694 -0.01210948
v -0.00354203 -0.00756575 -0.01225610
v -0.00405659 -0.00551550 -0.00873432
v -0.00391549 -0.00796714 -0.01226288
v -0.00405659 -0.00813415 -0.01226672
v -0.00405659 -0.00988332 -0.01241248
v -0.00405659 -0.00919366 -0.00873432
v -0.00083639 -0.00562194 -0.01175323
v -0.00060831 -0.00551550 -0.01172215
v -0.00060831 -0.00551624 -0.01172236
v -0.00060875 -0.00552382 -0.01172458
v -0.00060831 -0.00551550 -0.00873432
v -0.00083820 -0.00988332 -0.01264236
v -0.00060831 -0.00988332 -0.00896420
f 7 2 1
f 5 4 2
f 6 5 2
f 7 6 2
f 4 8 15
f 12 11 10
f 18 10 3
f 13 19 2
f 18 12 10
f 4 13 2
f 4 17 13
f 17 22 13
f 15 14 9
f 12 15 9
f 16 4 15
f 16 15 12
f 17 4 16
f 23 16 12
f 24 17 16
f 18 21 12
f 21 23 12
f 22 20 19
f 23 21 20
f 22 19 13
f 22 24 20
f 23 24 16
f 24 23 20
f 24 22 17
f 18 3 2
f 19 18 2
f 19 20 18
f 20 21 18
f 2 11 1
f 3 11 2
f 10 11 3
f 9 7 1
f 11 9 1
f 11 12 9
f 7 14 6
f 9 14 7
f 8 5 6
f 14 8 6
f 15 8 14
f 4 5 8
