# https://github.com/mikedh/trimesh

o cmr_v4_19.obj
v -0.00934394 -0.00528562 -0.00413662
v -0.01003360 -0.00528562 -0.00137800
v -0.01026348 -0.00528562 0.00253005
v -0.00957383 -0.00988332 -0.00390673
v -0.01026348 -0.00988332 0.00069097
v -0.01026348 -0.00988332 0.00253005
v -0.00612555 -0.00528562 -0.00413662
v -0.00612555 -0.00528562 0.00253005
v -0.00658532 -0.00988332 -0.00413662
v -0.00750486 -0.00988332 0.00253005
f 1 4 2
f 2 7 1
f 5 3 2
f 2 3 8
f 2 4 5
f 4 1 9
f 5 6 3
f 3 6 10
f 4 6 5
f 10 6 4
f 8 7 2
f 9 1 7
f 8 9 7
f 3 10 8
f 9 10 4
f 10 9 8
