# https://github.com/mikedh/trimesh

o cmr_v4_24.obj
v -0.00060831 -0.01540056 -0.01241248
v 0.00077100 -0.01540056 -0.01241248
v -0.00060831 -0.01540056 -0.00873432
v -0.00060831 -0.01861895 -0.01218259
v 0.00352962 -0.01884883 -0.01172282
v -0.00060831 -0.01930860 -0.00873432
v 0.00100088 -0.01953849 -0.00850443
v 0.00628824 -0.01540056 -0.01149294
v 0.00651812 -0.01700975 -0.01103317
v 0.00766755 -0.01563044 -0.00896420
v 0.00766755 -0.01540056 -0.00781478
v 0.00536870 -0.01838906 -0.00804466
f 1 2 4
f 1 8 2
f 2 8 5
f 3 1 6
f 1 3 11
f 3 7 11
f 4 2 5
f 6 1 4
f 5 7 4
f 7 3 6
f 4 7 6
f 7 5 12
f 11 8 1
f 5 8 9
f 9 8 10
f 10 8 11
f 10 12 9
f 11 12 10
f 12 5 9
f 11 7 12
